<svg width="110" height="105" viewBox="0 0 110 105" fill="none" xmlns="http://www.w3.org/2000/svg">
<rect width="110" height="105" fill="#1E1E1E"/>
<g id="iPhone 14 - 1">
<rect width="390" height="844" transform="translate(-138 -368)" fill="white"/>
<path id="Ellipse 1" d="M164.833 125.399C166.869 126.256 169.221 125.302 170.011 123.239C176.632 105.934 179.197 87.3215 177.484 68.8368C175.648 49.0231 168.954 29.9679 157.995 13.3592C147.036 -3.24955 132.15 -16.8992 114.655 -26.3807C97.161 -35.8622 77.5983 -40.8829 57.7 -40.998C37.8018 -41.1131 18.1823 -36.3191 0.579338 -27.0407C-17.0236 -17.7623 -32.0666 -4.28576 -43.2172 12.1951C-54.3678 28.6759 -61.2818 47.6523 -63.3467 67.4434C-65.2732 85.9071 -62.9238 104.548 -56.5033 121.928C-55.7378 124.001 -53.397 124.981 -51.3511 124.148L-49.0109 123.194C-46.9651 122.361 -45.9897 120.029 -46.7486 117.954C-52.5196 102.179 -54.6233 85.2775 -52.8766 68.5359C-50.9913 50.4666 -44.6788 33.1411 -34.4983 18.0941C-24.3178 3.0471 -10.5836 -9.25694 5.48794 -17.7281C21.5594 -26.1994 39.4721 -30.5763 57.6391 -30.4712C75.8062 -30.366 93.667 -25.7822 109.639 -17.1256C125.612 -8.46897 139.203 3.99316 149.208 19.1569C159.214 34.3207 165.326 51.7181 167.002 69.808C168.555 86.5687 166.256 103.445 160.303 119.152C159.52 121.218 160.468 123.561 162.504 124.418L164.833 125.399Z" fill="#D9D9D9"/>
<g id="Happy Car">
<rect id="Rectangle 3" x="3" width="105" height="105" rx="10" fill="#B8FBA2"/>
<g id="HAPPY CAR">
<g id="HAPPY CAR_2">
<path id="Vector 2" d="M14.4375 55V71.8125C14.4375 72.9171 15.3329 73.8125 16.4375 73.8125H93.8125C94.9171 73.8125 95.8125 72.9171 95.8125 71.8125V55" stroke="black" stroke-width="3"/>
<path id="Vector 1" d="M21.4375 42.1621L31.3956 21.1437C31.7265 20.4453 32.4302 20 33.2031 20H76.2613C76.9873 20 77.6563 20.3934 78.0092 21.0279L89.6875 42.0254M14 41L28 43.1875L35 43.4062L42 43.625H56H70.875L82.25 43.1875L96.25 41" stroke="black" stroke-width="3" stroke-linejoin="round"/>
<g id="Group 3">
<path id="Line 1" d="M39.375 54.5625C39.375 54.5625 54.6875 85.1875 70.875 54.5625" stroke="black" stroke-width="3" stroke-linecap="round"/>
<path id="Vector 5" d="M70.875 54.125H39.375" stroke="black" stroke-width="3" stroke-linecap="round"/>
</g>
<path id="Vector 3" d="M18.375 74.25V81.4375C18.375 82.5421 19.2704 83.4375 20.375 83.4375H29.9375C31.0421 83.4375 31.9375 82.5421 31.9375 81.4375V74.25" stroke="black" stroke-width="3"/>
<path id="Vector 4" d="M78.75 74.25V81.4375C78.75 82.5421 79.6454 83.4375 80.75 83.4375H90.3125C91.4171 83.4375 92.3125 82.5421 92.3125 81.4375V74.25" stroke="black" stroke-width="2"/>
</g>
<path id="Star 1" d="M18.9309 50.9417L20.5625 45.9201L22.1941 50.9417L23.383 50.5555L22.1941 50.9417C22.4954 51.8688 23.3593 52.4965 24.334 52.4965H29.6141L25.3424 55.6C24.5538 56.173 24.2238 57.1885 24.5251 58.1156L26.1567 63.1373L21.885 60.0337C21.0964 59.4607 20.0286 59.4607 19.24 60.0337L14.9683 63.1373L16.5999 58.1156C16.9012 57.1885 16.5712 56.173 15.7826 55.6L11.5109 52.4965H16.791C17.7657 52.4965 18.6296 51.8688 18.9309 50.9417ZM26.3945 63.869C26.3944 63.8689 26.3944 63.8688 26.3943 63.8686L26.3945 63.869ZM14.7305 63.869L14.7306 63.8688L14.7305 63.869Z" stroke="black" stroke-width="2.5"/>
<path id="Star 2" d="M88.0559 50.9417L89.6875 45.9201L91.3191 50.9417L92.508 50.5555L91.3191 50.9417C91.6204 51.8688 92.4843 52.4965 93.459 52.4965H98.7391L94.4674 55.6C93.6788 56.173 93.3488 57.1885 93.6501 58.1156L95.2817 63.1373L91.01 60.0337C90.2214 59.4607 89.1536 59.4607 88.365 60.0337L84.0933 63.1373L85.7249 58.1156C86.0262 57.1885 85.6962 56.173 84.9076 55.6L80.6359 52.4965H85.916C86.8907 52.4965 87.7546 51.8688 88.0559 50.9417ZM95.5195 63.869C95.5194 63.8689 95.5194 63.8688 95.5193 63.8686L95.5195 63.869ZM83.8555 63.869L83.8556 63.8688L83.8555 63.869Z" stroke="black" stroke-width="2.5"/>
</g>
</g>
</g>
</svg>
