<svg width="105" height="105" viewBox="0 0 105 105" fill="none" xmlns="http://www.w3.org/2000/svg">
<g clip-path="url(#clip0_6_32)">
<rect width="105" height="105" rx="10" fill="#FCEEC4"/>
<path d="M12.3125 55.4724V71.8655C12.3125 72.9701 13.2079 73.8655 14.3125 73.8655H91.6875C92.7921 73.8655 93.6875 72.9701 93.6875 71.8655V55.9103" stroke="black" stroke-width="3"/>
<path d="M19.3125 42.1839L29.2709 21.1444C29.6016 20.4456 30.3055 20 31.0786 20H74.1358C74.8621 20 75.5313 20.3937 75.884 21.0286L87.5625 42.0471M11.875 41.0207L25.875 43.2103L32.875 43.4293L39.875 43.6483H53.875H68.75L80.125 43.2103L94.125 41.0207" stroke="black" stroke-width="3" stroke-linejoin="round"/>
<path d="M25.25 56.7862C25.25 60.3127 22.3944 63.169 18.875 63.169C15.3556 63.169 12.5 60.3127 12.5 56.7862C12.5 53.2597 15.3556 50.4034 18.875 50.4034C22.3944 50.4034 25.25 53.2597 25.25 56.7862Z" stroke="black" stroke-width="3"/>
<path d="M93.5 56.7862C93.5 60.3127 90.6444 63.169 87.125 63.169C83.6056 63.169 80.75 60.3127 80.75 56.7862C80.75 53.2597 83.6056 50.4034 87.125 50.4034C90.6444 50.4034 93.5 53.2597 93.5 56.7862Z" stroke="black" stroke-width="3"/>
<path d="M37.25 63.3552H68.75" stroke="black" stroke-width="3" stroke-linecap="round"/>
<path d="M16.25 74.3035V81.5C16.25 82.6046 17.1454 83.5 18.25 83.5H27.8125C28.9171 83.5 29.8125 82.6046 29.8125 81.5V74.3035" stroke="black" stroke-width="3"/>
<path d="M76.625 74.3035V81.5C76.625 82.6046 77.5204 83.5 78.625 83.5H88.1875C89.2921 83.5 90.1875 82.6046 90.1875 81.5V74.3035" stroke="black" stroke-width="2"/>
</g>
<defs>
<clipPath id="clip0_6_32">
<rect width="105" height="105" fill="white"/>
</clipPath>
</defs>
</svg>
