<svg width="105" height="105" viewBox="0 0 105 105" fill="none" xmlns="http://www.w3.org/2000/svg">
<rect width="105" height="105" rx="10" fill="#F9809E"/>
<path d="M11.4415 56.4389V72.8146C11.4415 73.9192 12.3369 74.8146 13.4415 74.8146H91.5585C92.6631 74.8146 93.5585 73.9192 93.5585 72.8146V56.8764" stroke="black" stroke-width="3"/>
<path d="M18.5053 43.163L28.5573 22.1374C28.8896 21.4424 29.5914 21 30.3617 21H73.845C74.5682 21 75.2351 21.3905 75.5891 22.0212L87.3777 43.0263M11 42.0008L25.1277 44.1884L32.1915 44.4072L39.2553 44.6259H53.383H68.3936L79.8723 44.1884L94 42.0008" stroke="black" stroke-width="3" stroke-linejoin="round"/>
<path d="M68.3936 68.738C68.3936 68.738 52.9415 38.1118 36.6064 68.738" stroke="black" stroke-width="3" stroke-linecap="round"/>
<path d="M15.4149 75.2521V82.44C15.4149 83.5446 16.3103 84.44 17.4149 84.44H27.1011C28.2056 84.44 29.1011 83.5446 29.1011 82.44V75.2521" stroke="black" stroke-width="3"/>
<path d="M76.3404 75.2521V82.44C76.3404 83.5446 77.2359 84.44 78.3404 84.44H88.0266C89.1312 84.44 90.0266 83.5446 90.0266 82.44V75.2521" stroke="black" stroke-width="2"/>
<path d="M15.8978 52.8776C22.7305 54.8828 30.4626 53.2113 33.4746 52.1249" stroke="black" stroke-width="3" stroke-linecap="round"/>
<path d="M70.2271 51.3595C76.6047 54.5101 84.5122 54.1946 87.6688 53.643" stroke="black" stroke-width="3" stroke-linecap="round"/>
</svg>
